<svg width="75" height="60" viewBox="0 0 75 60" fill="none" xmlns="http://www.w3.org/2000/svg">
<path d="M32.292 2.62364V13.3023C32.292 14.7512 30.9157 15.9248 29.2188 15.9248C23.1636 15.9248 19.8695 21.224 19.4123 31.6849H29.2188C30.9154 31.6849 32.292 32.8601 32.292 34.3074V56.8558C32.292 58.3042 30.9157 59.4778 29.2188 59.4778H3.07346C1.37698 59.4778 0 58.3029 0 56.8558V34.3072C0 29.293 0.593208 24.6917 1.75771 20.628C2.95399 16.4622 4.79034 12.8201 7.21451 9.80196C9.70765 6.70039 12.829 4.26655 16.4864 2.57157C20.1716 0.865776 24.4553 4.57764e-05 29.22 4.57764e-05C30.9154 0.00114441 32.292 1.1758 32.292 2.62364ZM71.9274 15.9257C73.6241 15.9257 75 14.7512 75 13.3043V2.62346C75 1.17581 73.6241 0.00206375 71.9274 0.00206375C67.165 0.00206375 62.8791 0.867981 59.1964 2.57359C55.537 4.26839 52.4161 6.70021 49.9232 9.80397C47.4975 12.8221 45.6614 16.4644 44.4651 20.6322C43.2999 24.696 42.708 29.2974 42.708 34.3094V56.858C42.708 58.3064 44.0852 59.48 45.7812 59.48L71.9274 59.48C73.6241 59.48 75 58.3053 75 56.858V34.3094C75 32.8612 73.6241 31.6869 71.9274 31.6869H62.2586C62.7103 21.2251 65.9569 15.9257 71.9274 15.9257Z" fill="#391610"/>
</svg>
