<svg width="98" height="98" viewBox="0 0 98 98" fill="none" xmlns="http://www.w3.org/2000/svg">
<path d="M68.9062 29.7813C70.5967 29.7813 71.9688 28.5196 71.9688 26.9638V23.9886C71.9688 22.4298 70.5967 21.168 68.9062 21.168C68.9062 -2.97365 29.0938 -2.97365 29.0938 21.168C27.4033 21.168 26.0312 22.4298 26.0312 23.9886V26.9638C26.0312 28.5196 27.4033 29.7813 29.0938 29.7813H29.524V86.3242H29.0938C27.4033 86.3242 26.0312 87.586 26.0312 89.1418V92.117C26.0312 93.6727 27.4033 94.9375 29.0938 94.9375H68.9062C70.5967 94.9375 71.9688 93.6727 71.9688 92.117V89.1418C71.9688 87.586 70.5967 86.3242 68.9062 86.3242H68.476V29.7813H68.9062ZM32.0246 62.4459V53.4146C43.342 50.6446 54.658 39.8998 65.9754 37.1298V46.158C54.658 48.9281 43.342 59.6744 32.0246 62.4459ZM65.9754 54.2369V63.2652C54.658 66.0352 43.342 76.78 32.0246 79.55V70.5218C43.342 67.7487 54.658 57.0039 65.9754 54.2369ZM36.3044 86.3242C46.1947 82.3675 56.0851 73.8813 65.9754 71.4635V80.4917C60.9238 81.729 56.8385 83.9707 52.8588 86.3242H36.3044ZM32.0246 45.2194V36.1881C36.7071 35.0427 41.3882 32.5284 46.0692 29.7813H63.2054C52.8113 33.4211 42.4172 42.6729 32.0246 45.2194Z" fill="#391610" stroke="#391610" stroke-width="1.53125"/>
</svg>
