<svg width="101" height="101" viewBox="0 0 101 101" fill="none" xmlns="http://www.w3.org/2000/svg">
<path opacity="0.5" fill-rule="evenodd" clip-rule="evenodd" d="M21.3141 1.98926C23.0951 3.12183 23.509 5.32717 22.2387 6.91502L20.1997 9.46358C23.5049 11.6968 24.2374 15.8839 21.8134 18.9138L19.6448 21.6244C18.3745 23.2122 15.9009 23.5813 14.12 22.4487C12.3391 21.3161 11.9251 19.1108 13.1955 17.5229L15.2344 14.9743C11.9293 12.7412 11.1968 8.55401 13.6208 5.52413L15.7893 2.81355C17.0596 1.2257 19.5332 0.856638 21.3141 1.98926ZM42.4391 1.98926C44.22 3.12183 44.634 5.32717 43.3639 6.91502L41.3248 9.46358C44.6298 11.6968 45.3623 15.8839 42.9382 18.9138L40.7697 21.6244C39.4996 23.2122 37.026 23.5813 35.2451 22.4487C33.4642 21.3161 33.0502 19.1108 34.3206 17.5229L36.3595 14.9743C33.0543 12.7412 32.3218 8.55401 34.7458 5.52413L36.9144 2.81355C38.1846 1.2257 40.6583 0.856638 42.4391 1.98926ZM63.5642 1.98926C65.345 3.12183 65.7591 5.32717 64.489 6.91502L62.4499 9.46358C65.7549 11.6968 66.4874 15.8839 64.0633 18.9138L61.8948 21.6244C60.6247 23.2122 58.1509 23.5813 56.3701 22.4487C54.5892 21.3161 54.1752 19.1108 55.4458 17.5229L57.4844 14.9743C54.1794 12.7412 53.4469 8.55401 55.871 5.52413L58.0395 2.81355C59.3096 1.2257 61.7834 0.856638 63.5642 1.98926Z" fill="#391610" stroke="#391610" stroke-width="2.66667"/>
<path opacity="0.5" d="M35.2363 99.3324H39.3208C53.3732 99.3324 60.3994 99.3324 64.9677 95.5217C68.5072 92.5694 69.5846 88.1522 70.3255 80.4978H4.23145C4.97209 88.1522 6.04973 92.5694 9.58934 95.5217C14.1577 99.3324 21.1839 99.3324 35.2363 99.3324Z" fill="#391610" stroke="#391610" stroke-width="2.66667"/>
<path fill-rule="evenodd" clip-rule="evenodd" d="M1.81131 48.7902C1.10742 39.3765 0.755476 34.6697 3.88621 31.6862C7.01695 28.7026 12.3078 28.7026 22.8896 28.7026H51.6669C62.2485 28.7026 67.5393 28.7026 70.67 31.6862C71.5282 32.5037 72.1245 33.4507 72.5237 34.5884H74.247C88.1019 34.5884 99.333 44.6019 99.333 56.9545C99.333 69.3072 88.1019 79.3206 74.247 79.3206H70.4344C70.3985 79.7213 70.3626 80.1136 70.3251 80.4978H4.23113C4.01587 78.2729 3.82907 75.775 3.61861 72.9597L1.81131 48.7902ZM70.99 72.2576H74.247C83.7263 72.2576 91.4111 65.4061 91.4111 56.9545C91.4111 48.503 83.7263 41.6514 74.247 41.6514H73.1944C73.1274 43.6766 72.9515 46.0314 72.745 48.7902L70.99 72.2576Z" fill="#391610" stroke="#391610" stroke-width="2.66667"/>
</svg>
