<svg width="29" height="29" viewBox="0 0 29 29" fill="none" xmlns="http://www.w3.org/2000/svg">
<path fill-rule="evenodd" clip-rule="evenodd" d="M14.5006 22.4074C18.8687 22.4074 22.4097 18.8663 22.4097 14.4983C22.4097 10.1302 18.8687 6.58919 14.5006 6.58919C10.1326 6.58919 6.59155 10.1302 6.59155 14.4983C6.59155 18.8663 10.1326 22.4074 14.5006 22.4074ZM14.5006 19.771C17.4126 19.771 19.7734 17.4103 19.7734 14.4983C19.7734 11.5862 17.4126 9.22556 14.5006 9.22556C11.5886 9.22556 9.22792 11.5862 9.22792 14.4983C9.22792 17.4103 11.5886 19.771 14.5006 19.771Z" fill="#EDE0C8"/>
<path d="M22.4097 5.2723C21.6817 5.2723 21.0916 5.86248 21.0916 6.59048C21.0916 7.31849 21.6817 7.90866 22.4097 7.90866C23.1378 7.90866 23.7279 7.31849 23.7279 6.59048C23.7279 5.86248 23.1378 5.2723 22.4097 5.2723Z" fill="#EDE0C8"/>
<path fill-rule="evenodd" clip-rule="evenodd" d="M0.862038 4.31844C0 6.01029 0 8.22505 0 12.6545V16.3455C0 20.7749 0 22.9897 0.862038 24.6815C1.62031 26.1697 2.83024 27.3797 4.31844 28.1379C6.01029 29 8.22505 29 12.6545 29H16.3455C20.7749 29 22.9897 29 24.6815 28.1379C26.1697 27.3797 27.3797 26.1697 28.1379 24.6815C29 22.9897 29 20.7749 29 16.3455V12.6545C29 8.22505 29 6.01029 28.1379 4.31844C27.3797 2.83024 26.1697 1.62031 24.6815 0.862038C22.9897 0 20.7749 0 16.3455 0H12.6545C8.22505 0 6.01029 0 4.31844 0.862038C2.83024 1.62031 1.62031 2.83024 0.862038 4.31844ZM16.3455 2.63636H12.6545C10.3963 2.63636 8.86115 2.63842 7.67456 2.73536C6.51873 2.82979 5.92765 3.00096 5.51533 3.21105C4.5232 3.71657 3.71657 4.5232 3.21105 5.51533C3.00096 5.92765 2.82979 6.51873 2.73536 7.67456C2.63842 8.86115 2.63636 10.3963 2.63636 12.6545V16.3455C2.63636 18.6038 2.63842 20.1388 2.73536 21.3254C2.82979 22.4813 3.00096 23.0724 3.21105 23.4847C3.71657 24.4768 4.5232 25.2834 5.51533 25.7889C5.92765 25.999 6.51873 26.1703 7.67456 26.2646C8.86115 26.3615 10.3963 26.3636 12.6545 26.3636H16.3455C18.6038 26.3636 20.1388 26.3615 21.3254 26.2646C22.4813 26.1703 23.0724 25.999 23.4847 25.7889C24.4768 25.2834 25.2834 24.4768 25.7889 23.4847C25.999 23.0724 26.1703 22.4813 26.2646 21.3254C26.3615 20.1388 26.3636 18.6038 26.3636 16.3455V12.6545C26.3636 10.3963 26.3615 8.86115 26.2646 7.67456C26.1703 6.51873 25.999 5.92765 25.7889 5.51533C25.2834 4.5232 24.4768 3.71657 23.4847 3.21105C23.0724 3.00096 22.4813 2.82979 21.3254 2.73536C20.1388 2.63842 18.6038 2.63636 16.3455 2.63636Z" fill="#EDE0C8"/>
</svg>
