<svg width="98" height="98" viewBox="0 0 98 98" fill="none" xmlns="http://www.w3.org/2000/svg">
<g clip-path="url(#clip0_39_399)">
<path d="M90.4636 85.5598H7.53641C4.50626 85.5598 2.04956 83.1033 2.04956 80.073V68.7417H95.9504V80.073C95.9504 83.1031 93.4939 85.5598 90.4636 85.5598Z" fill="#391610" stroke="#937C6E" stroke-width="0.191406"/>
<path d="M91.8594 57.0527H6.14062V68.7417H91.8594V57.0527Z" fill="#391610" stroke="#937C6E" stroke-width="0.191406"/>
<path d="M91.8594 45.363H6.14062V57.052H91.8594V45.363Z" fill="#391610" stroke="#937C6E" stroke-width="0.191406"/>
<path d="M95.9504 45.3637H2.04956C2.04956 27.1805 16.7899 12.4399 34.9734 12.4399H63.0268C81.21 12.4399 95.9504 27.1807 95.9504 45.3637Z" fill="#391610" stroke="#937C6E" stroke-width="0.191406"/>
<path d="M95.9504 66.7895H93.8115V59.005H96.0478C97.126 59.005 98 58.1308 98 57.0528C98 55.9748 97.126 55.1007 96.0478 55.1007H93.8115V47.3162H95.9504C97.0286 47.3162 97.9026 46.442 97.9026 45.364C97.9026 26.1334 82.2574 10.4883 63.0266 10.4883H34.9734C15.7428 10.4883 0.0974258 26.1334 0.0974258 45.364C0.0974258 46.442 0.971387 47.3162 2.04958 47.3162H4.18854V55.1007H1.95215C0.873961 55.1005 0 55.9748 0 57.0528C0 58.1308 0.873961 59.005 1.95215 59.005H4.18854V66.7895H2.04958C0.971387 66.7895 0.0974258 67.6636 0.0974258 68.7416V80.0729C0.0974258 84.1749 3.43459 87.5117 7.53643 87.5117H90.4636C94.5656 87.5117 97.9026 84.1745 97.9026 80.0729V68.7416C97.9026 67.6636 97.0286 66.7895 95.9504 66.7895ZM4.06279 43.4117C5.07341 27.24 18.5513 14.3926 34.9734 14.3926H63.0268C79.4491 14.3926 92.9268 27.2402 93.9374 43.4117H4.06279ZM89.907 47.316V55.1005H8.09304V47.316H89.907ZM8.09304 59.005H89.9072V66.7895H8.09304V59.005ZM93.9983 70.694V80.0731C93.9983 82.022 92.4127 83.6076 90.4636 83.6076H7.53643C5.58734 83.6076 4.00173 82.022 4.00173 80.0731V70.694H93.9983Z" fill="#937C6E" stroke="#937C6E" stroke-width="0.191406"/>
<path d="M33.415 21.2109H34.1944C35.2726 21.2109 36.1466 20.3368 36.1466 19.2588C36.1466 18.1808 35.2726 17.3066 34.1944 17.3066H33.415C32.3369 17.3066 31.4629 18.1808 31.4629 19.2588C31.4629 20.3368 32.3369 21.2109 33.415 21.2109Z" fill="#937C6E" stroke="#937C6E" stroke-width="0.191406"/>
<path d="M43.1555 21.2109H43.9349C45.0131 21.2109 45.8871 20.3368 45.8871 19.2588C45.8871 18.1808 45.0131 17.3066 43.9349 17.3066H43.1555C42.0773 17.3066 41.2034 18.1808 41.2034 19.2588C41.2034 20.3368 42.0773 21.2109 43.1555 21.2109Z" fill="#937C6E" stroke="#937C6E" stroke-width="0.191406"/>
<path d="M54.0652 21.2109H54.8446C55.9228 21.2109 56.7967 20.3368 56.7967 19.2588C56.7967 18.1808 55.9228 17.3066 54.8446 17.3066H54.0652C52.987 17.3066 52.113 18.1808 52.113 19.2588C52.113 20.3368 52.987 21.2109 54.0652 21.2109Z" fill="#937C6E" stroke="#937C6E" stroke-width="0.191406"/>
<path d="M63.8062 21.2109H64.5856C65.6638 21.2109 66.5377 20.3368 66.5377 19.2588C66.5377 18.1808 65.6638 17.3066 64.5856 17.3066H63.8062C62.728 17.3066 61.854 18.1808 61.854 19.2588C61.854 20.3368 62.728 21.2109 63.8062 21.2109Z" fill="#937C6E" stroke="#937C6E" stroke-width="0.191406"/>
<path d="M40.0386 40.887H41.2075C42.2857 40.887 43.1596 40.0128 43.1596 38.9348C43.1596 37.8568 42.2857 36.9827 41.2075 36.9827H40.0386C38.9604 36.9827 38.0864 37.8568 38.0864 38.9348C38.0864 40.0128 38.9604 40.887 40.0386 40.887Z" fill="#937C6E" stroke="#937C6E" stroke-width="0.191406"/>
<path d="M9.84204 40.887H32.6355C33.7137 40.887 34.5876 40.0128 34.5876 38.9348C34.5876 37.8568 33.7137 36.9827 32.6355 36.9827H9.84204C8.76385 36.9827 7.88989 37.8568 7.88989 38.9348C7.88989 40.0128 8.76385 40.887 9.84204 40.887Z" fill="#937C6E" stroke="#937C6E" stroke-width="0.191406"/>
</g>
<defs>
<clipPath id="clip0_39_399">
<rect width="98" height="98" fill="white"/>
</clipPath>
</defs>
</svg>
