<svg width="98" height="98" viewBox="0 0 98 98" fill="none" xmlns="http://www.w3.org/2000/svg">
<path d="M67.4877 8.16675H30.5107C25.5992 8.16675 23.1434 8.16675 21.17 9.38644C19.1964 10.6061 18.0982 12.8026 15.9017 17.1956L10.1703 31.6839C8.84609 35.0312 7.68753 38.9765 9.91654 41.8032C11.4119 43.6995 13.73 44.9167 16.3324 44.9167C20.8428 44.9167 24.4991 41.2605 24.4991 36.7501C24.4991 41.2605 28.1555 44.9167 32.6658 44.9167C37.1761 44.9167 40.8324 41.2605 40.8324 36.7501C40.8324 41.2605 44.4887 44.9167 48.9992 44.9167C53.5096 44.9167 57.1659 41.2605 57.1659 36.7501C57.1659 41.2605 60.8221 44.9167 65.3325 44.9167C69.843 44.9167 73.4992 41.2605 73.4992 36.7501C73.4992 41.2605 77.1554 44.9167 81.6659 44.9167C84.2682 44.9167 86.5863 43.6995 88.082 41.8032C90.3111 38.9765 89.1526 35.0312 87.8284 31.6839L82.0971 17.1956C79.9002 12.8026 78.8022 10.6061 76.8287 9.38644C74.8553 8.16675 72.3995 8.16675 67.4877 8.16675Z" fill="#391610"/>
<path fill-rule="evenodd" clip-rule="evenodd" d="M81.6667 86.7709H89.8334C91.5247 86.7709 92.8959 88.1421 92.8959 89.8334C92.8959 91.5247 91.5247 92.8959 89.8334 92.8959H8.16675C6.47539 92.8959 5.10425 91.5247 5.10425 89.8334C5.10425 88.1421 6.47539 86.7709 8.16675 86.7709H16.3334V51.0417C19.3699 51.0417 22.1852 50.0948 24.5001 48.4802C26.815 50.0948 29.6303 51.0417 32.6667 51.0417C35.7032 51.0417 38.5185 50.0948 40.8334 48.4802C43.1483 50.0948 45.9637 51.0417 49.0001 51.0417C52.0364 51.0417 54.8519 50.0948 57.1668 48.4802C59.4816 50.0948 62.2971 51.0417 65.3334 51.0417C68.3698 51.0417 71.1852 50.0948 73.5001 48.4802C75.8149 50.0948 78.6304 51.0417 81.6667 51.0417V86.7709ZM38.7917 86.7709H59.2084V75.5417C59.2084 71.7254 59.2084 69.8173 58.3877 68.3959C57.8503 67.4649 57.0769 66.6915 56.1459 66.1537C54.7245 65.3334 52.8164 65.3334 49.0001 65.3334C45.1838 65.3334 43.2757 65.3334 41.8542 66.1537C40.9232 66.6915 40.1499 67.4649 39.6123 68.3959C38.7918 69.8173 38.7917 71.7254 38.7917 75.5417V86.7709Z" fill="#391610"/>
</svg>
