<svg width="98" height="98" viewBox="0 0 98 98" fill="none" xmlns="http://www.w3.org/2000/svg">
<path fill-rule="evenodd" clip-rule="evenodd" d="M29.3649 88.3261L28.4318 64.831L38.999 64.4083C43.513 65.0304 48.0828 67.2874 52.6766 69.9272L60.8831 69.6002C64.6076 69.6799 66.7051 73.3645 63.188 75.9804C60.3966 78.2055 56.5924 78.2374 52.6846 78.038C49.9969 78.0141 50.0208 81.6269 52.8201 81.5232C53.7931 81.5631 54.8459 81.2919 55.763 81.252C60.6199 81.0527 64.5837 79.968 66.8805 76.0282L67.9971 73.1093L79.9679 66.5696C85.9972 64.3126 90.0566 69.9989 85.734 74.6246C77.1447 81.4115 68.8265 87.6003 59.7187 92.2419C53.1471 96.6044 46.4001 96.74 39.5094 93.0474L29.3649 88.3261ZM23.7184 52.5252H97.0111C97.5534 52.5252 98 52.9797 98 53.5141V57.8287C98 58.363 97.5534 58.8176 97.0111 58.8176H23.7184C23.1761 58.8176 22.7295 58.371 22.7295 57.8287V53.5141C22.7295 52.9718 23.1761 52.5252 23.7184 52.5252ZM63.2119 11.2611C83.2777 12.8642 100.177 29.7319 97.681 49.5903H23.0565C20.5921 29.6042 37.5555 12.7126 57.7648 11.2372V7.99927H54.5747C54.0164 7.99927 53.5539 7.5367 53.5539 6.97843V3.32577C53.5539 2.7675 54.0085 2.30493 54.5747 2.30493H66.3143C66.8726 2.30493 67.3351 2.7675 67.3351 3.32577V6.97843C67.3351 7.5367 66.8726 7.99927 66.3143 7.99927H63.2119V11.2611ZM0 64.0255L25.1619 62.7016L26.2785 90.8144L1.11654 92.1303L0 64.0255Z" fill="#391610"/>
</svg>
