<svg width="98" height="98" viewBox="0 0 98 98" fill="none" xmlns="http://www.w3.org/2000/svg">
<path d="M96.9677 80.4926C95.9711 78.2263 94.3145 76.3083 92.224 74.951C90.1372 73.5937 87.5944 72.7952 84.8927 72.7969C83.0932 72.7969 81.3613 73.152 79.7913 73.7874C79.4142 73.9421 79.0475 74.1188 78.6887 74.3023L74.4443 62.9812L78.0948 57.3546C78.0948 45.1687 82.6193 10.2849 71.9183 0C61.2188 10.2849 62.5026 45.1704 62.5026 57.3512L66.6074 63.6846L61.9813 74.3364C60.1153 73.356 57.9675 72.7956 55.7038 72.7971C53.9033 72.7956 52.1698 73.1506 50.6016 73.7893C48.2426 74.7458 46.2493 76.3393 44.8375 78.349C43.423 80.3571 42.5952 82.8015 42.5978 85.3974C42.596 87.1285 42.9643 88.795 43.6297 90.3054C44.6263 92.5717 46.2819 94.4861 48.3724 95.8455C50.46 97.2045 53.0002 98.0011 55.7046 97.9996C57.5044 97.9996 59.2371 97.6495 60.8061 97.0073C63.1623 96.0494 65.1582 94.4542 66.5691 92.4461C67.9819 90.4381 68.8125 87.9969 68.8089 85.3976C68.8117 83.6665 68.4442 81.9999 67.7788 80.493C67.3846 79.596 66.8829 78.7585 66.2954 77.9838L70.2977 71.8136L74.3034 77.9873C74.2098 78.1081 74.1152 78.2284 74.0251 78.3492C72.6139 80.3573 71.7845 82.8017 71.7871 85.3976C71.7853 87.1287 72.152 88.7952 72.8172 90.3056C73.8166 92.5719 75.474 94.4882 77.5627 95.8457C79.6477 97.2047 82.1905 98.0013 84.8933 97.9998C86.6921 97.9998 88.4264 97.648 89.9964 97.0075C92.3526 96.0478 94.3469 94.4544 95.7594 92.4463C97.1714 90.4383 98.002 87.9971 98 85.3978C97.9996 83.6661 97.6331 81.9995 96.9677 80.4926ZM61.3283 87.6805C60.8672 88.7288 60.0898 89.6325 59.1134 90.2645C58.1345 90.898 56.9806 91.2652 55.7048 91.2652C54.8513 91.2652 54.058 91.1002 53.3291 90.8064C52.2389 90.3646 51.2988 89.6137 50.6398 88.6743C49.9816 87.7364 49.6025 86.6255 49.6018 85.3972C49.6 84.5766 49.7714 83.8154 50.078 83.1139C50.5383 82.0673 51.3183 81.1654 52.2928 80.5301C53.2728 79.8964 54.4265 79.531 55.7048 79.5294C56.5573 79.531 57.3499 79.6942 58.0788 79.9898C59.1692 80.4333 60.1073 81.1807 60.7657 82.1184C61.4249 83.0613 61.8045 84.1707 61.8055 85.3972C61.8065 86.216 61.6367 86.9805 61.3283 87.6805ZM90.518 87.6805C90.0585 88.7288 89.2775 89.6325 88.3031 90.2645C87.325 90.898 86.1695 91.2617 84.8935 91.2652C84.04 91.2652 83.2483 91.1002 82.5196 90.8064C81.4284 90.3629 80.4893 89.6137 79.8301 88.6743C79.1729 87.7364 78.792 86.6237 78.7903 85.3972C78.792 84.5766 78.9609 83.8154 79.2683 83.1139C79.7296 82.0673 80.5078 81.1654 81.4831 80.5301C82.4611 79.8964 83.617 79.531 84.8935 79.5294C85.7452 79.531 86.5386 79.6942 87.2675 79.9898C88.3577 80.4333 89.2986 81.1807 89.956 82.1184C90.6134 83.0597 90.995 84.1707 90.9976 85.3972C90.996 86.216 90.8264 86.9805 90.518 87.6805Z" fill="#391610"/>
<path d="M18.9153 41.5891L33.587 41.5925C35.2896 41.5925 36.6687 40.2642 36.6705 38.6297C36.6687 36.9955 35.2886 35.667 33.5898 35.667L18.9153 35.6704C18.3347 35.667 17.8631 35.215 17.8605 34.6544L17.8633 31.7969C17.8633 31.2361 18.3349 30.7844 18.9181 30.7844L33.587 30.7876C35.2896 30.7876 36.6687 29.4591 36.6661 27.8248C36.6687 26.1837 35.2896 24.8653 33.587 24.8653H18.9145C18.3349 24.8621 17.8623 24.4067 17.8595 23.8493L17.8623 20.9953C17.8623 20.4314 18.3349 19.976 18.9145 19.9793L33.589 19.976C35.2914 19.976 36.6663 18.6542 36.6663 17.013C36.6689 15.3823 35.2898 14.0539 33.5872 14.0539H18.9155C18.3349 14.0572 17.8615 13.602 17.8623 13.0414V10.1877C17.8623 9.62705 18.3349 9.17514 18.9163 9.17514L32.6636 9.17169C34.8761 9.17169 36.6687 7.44559 36.6687 5.32557C36.6687 3.19847 34.8743 1.47255 32.6646 1.47255L10.0439 0.878236C7.40214 0.816986 4.84703 1.78206 2.95787 3.55219C1.06632 5.32901 0.00258807 7.75835 0.00258807 10.2998L0 88.5723C0 91.1104 1.06473 93.5431 2.95727 95.3167C4.84703 97.0935 7.40215 98.0552 10.0431 97.9976L32.6644 97.3961C34.8751 97.3961 36.6685 95.6769 36.6661 93.5498C36.6661 91.4229 34.8743 89.6968 32.6636 89.6968H18.9163C18.3349 89.6968 17.8613 89.2449 17.8623 88.6845L17.8595 85.8302C17.8595 85.2698 18.3314 84.8144 18.9153 84.8144H33.587C35.2896 84.8144 36.6687 83.4859 36.6705 81.8551C36.6687 80.2207 35.2904 78.8923 33.587 78.8923H18.9145C18.3314 78.8923 17.8595 78.4368 17.8613 77.8798L17.8595 75.0257C17.8613 74.4651 18.3357 74.0065 18.9153 74.0097H33.587C35.2896 74.0097 36.6687 72.6812 36.6661 71.0504C36.6687 69.4161 35.2896 68.0843 33.587 68.0843H18.9145C18.3339 68.0843 17.8595 67.6324 17.8595 67.0716L17.8623 64.2177C17.8623 63.6569 18.3349 63.2052 18.9145 63.2052H33.589C35.2896 63.2052 36.6689 61.8801 36.6689 60.2424C36.6663 58.6045 35.2898 57.2829 33.589 57.2794H18.9155C18.3349 57.2794 17.8623 56.8241 17.8623 56.2669V53.4094C17.8623 52.8489 18.3349 52.397 18.9181 52.397H33.5862C35.2904 52.3936 36.6669 51.0719 36.6697 49.4343C36.6697 47.7998 35.2896 46.4747 33.5872 46.4747H18.9165C18.3377 46.4747 17.8641 46.0196 17.8633 45.4587V42.6012C17.8603 42.0444 18.3347 41.5891 18.9153 41.5891Z" fill="#391610"/>
</svg>
